<?xml version="1.0" encoding="utf-8" ?><svg xmlns="http://www.w3.org/2000/svg" xmlns:xlink="http://www.w3.org/1999/xlink" width="817" height="1024" viewBox="0 0 817 1024"><path fill="#29A3DC" transform="scale(4.92308 4.92308)" d="M4.05071 125.434L4.07358 124.474C4.9927 123.735 10.4634 125.289 11.9477 125.508C18.6261 126.491 24.4706 126.653 31.2082 126.136C48.6938 124.82 65.3757 118.26 79.0737 107.313C96.876 93.1001 108.442 72.5118 111.318 49.9142C112.691 38.2345 111.92 26.8797 108.736 15.5484C107.843 12.3689 105.571 6.91824 104.998 4.49504C108.304 7.67251 111.591 10.8179 114.604 14.2843C126.244 27.6796 132.761 45.5049 133.106 63.2077C133.515 83.8063 125.702 103.72 111.395 118.545C100.66 129.889 86.7153 137.683 71.4278 140.881C69.4095 141.294 65.1542 142.062 63.1017 142.121L60.258 142.239C59.1896 142.128 57.7579 142.242 56.6543 142.297C54.8822 142.27 48.5639 142.084 47.1675 142.364C43.8372 141.653 40.5609 141.356 37.3069 140.659C25.9598 138.228 15.2103 132.793 5.91877 125.919C5.54982 125.646 4.51966 125.494 4.05071 125.434Z"/><path fill="#2972B9" transform="scale(4.92308 4.92308)" d="M64.8622 142.758C68.4888 142.691 72.6048 141.89 76.1823 141.135C93.5752 137.539 109.472 128.762 121.78 115.958C133.839 103.384 141.886 87.5075 144.899 70.3479C145.315 67.9819 145.592 65.5935 145.727 63.195C145.809 61.6851 145.804 59.2477 146.044 57.8909C154.977 76.6376 156.067 98.1725 149.072 117.725C141.934 137.668 126.573 153.911 107.427 162.669C93.4191 169.076 81.4613 169.88 66.4844 168.941C62.1507 168.068 59.4435 168.187 54.6889 166.762C52.0703 165.977 45.1147 163.265 43.3287 162.964C43.1614 162.724 38.8719 160.826 38.1856 160.468C33.7421 158.176 29.5732 155.388 25.759 152.155C19.7993 147.171 14.5307 141.415 10.0925 135.038C8.8228 133.192 5.38566 127.516 4.20873 126.289L4.15843 126.237L4.05071 125.434C4.51966 125.494 5.54982 125.646 5.91877 125.919C15.2103 132.793 25.9598 138.228 37.3069 140.659C40.5609 141.356 43.8372 141.653 47.1675 142.364C48.8825 142.72 53.7327 143.013 55.4264 142.712C55.8185 142.726 57.5539 142.813 57.8272 142.753C60.1704 142.85 62.5202 142.939 64.8622 142.758Z"/><path fill="#214084" transform="scale(4.92308 4.92308)" d="M161.117 123.688L161.115 123.867C160.951 145.345 152.119 165.845 136.623 180.718C106.143 210.44 55.9073 209.385 26.3295 178.907C14.8885 167.314 7.43002 152.383 5.03186 136.272C4.53354 132.971 4.10786 129.581 4.15843 126.237L4.20873 126.289C5.38566 127.516 8.8228 133.192 10.0925 135.038C14.5307 141.415 19.7993 147.171 25.759 152.155C29.5732 155.388 33.7421 158.176 38.1856 160.468C38.8719 160.826 43.1614 162.724 43.3287 162.964C46.6403 165.338 59.372 169.709 63.3558 170.218C65.3851 170.925 67.6918 171.141 69.8315 171.414C109.401 176.457 142.243 157.83 161.117 123.688Z"/><path fill="#D7D8DB" fill-opacity="0.039215688" transform="scale(4.92308 4.92308)" d="M43.3287 162.964C45.1147 163.265 52.0703 165.977 54.6889 166.762C59.4435 168.187 62.1507 168.068 66.4844 168.941C65.4369 170.79 65.0295 169.242 63.3558 170.218C59.372 169.709 46.6403 165.338 43.3287 162.964ZM63.2517 169.754C62.1864 168.23 61.6435 168.797 59.964 168.548C60.6271 169.417 62.1237 169.536 63.2517 169.754Z"/><path fill="#98E0FE" fill-opacity="0.72156864" transform="scale(4.92308 4.92308)" d="M47.1675 142.364C48.5639 142.084 54.8822 142.27 56.6543 142.297L55.4264 142.712C53.7327 143.013 48.8825 142.72 47.1675 142.364Z"/><path fill="#D7D8DB" fill-opacity="0.054901961" transform="scale(4.92308 4.92308)" d="M60.258 142.239L63.1017 142.121L63.2512 142.469L64.8622 142.758C62.5202 142.939 60.1704 142.85 57.8272 142.753C58.4738 142.462 59.5291 142.351 60.258 142.239Z"/><path fill="#C9FAFF" fill-opacity="0.35294119" transform="scale(4.92308 4.92308)" d="M56.6543 142.297C57.7579 142.242 59.1896 142.128 60.258 142.239C59.5291 142.351 58.4738 142.462 57.8272 142.753C57.5539 142.813 55.8185 142.726 55.4264 142.712L56.6543 142.297Z"/></svg>